<svg viewBox="0 0 24 24" fill="none" xmlns="http://www.w3.org/2000/svg">
  <path d="M6.915 4.03c-1.968 0-3.683 1.28-4.871 3.113C.704 9.208 0 11.883 0 14.449c0 .706.07 1.369.21 1.973a4.892 4.892 0 0 0 1.12 2.02c.584.59 1.296.918 2.09.918 1.211 0 2.248-.65 3.184-1.59.863-.863 1.657-2.008 2.396-3.33.697-1.248 1.341-2.613 1.94-4.015l.057-.133c.073.186.147.373.224.56.834 2.04 1.834 3.942 2.996 5.357 1.277 1.555 2.74 2.551 4.383 2.551.794 0 1.506-.329 2.09-.918a4.892 4.892 0 0 0 1.12-2.02c.14-.604.21-1.267.21-1.973 0-2.566-.704-5.24-2.044-7.303C18.768 5.31 17.053 4.03 15.085 4.03c-1.643 0-3.106.996-4.383 2.55-.372.453-.72.936-1.044 1.445a15.903 15.903 0 0 0-1.044-1.445C7.337 5.026 5.874 4.03 4.23 4.03h2.685zm0 2.22c.969 0 1.943.643 2.898 1.63.65.67 1.261 1.494 1.83 2.43-.46 1.104-.893 2.15-1.294 3.068-.664 1.52-1.326 2.826-2.036 3.847-.739 1.061-1.439 1.606-2.122 1.606-.323 0-.604-.113-.874-.372a2.63 2.63 0 0 1-.587-1.09 5.894 5.894 0 0 1-.15-1.42c0-2.2.582-4.565 1.725-6.26.584-.866 1.227-1.44 1.91-1.44h.7zm9.47 0c.683 0 1.326.573 1.91 1.44 1.143 1.694 1.725 4.06 1.725 6.26 0 .505-.05.986-.15 1.42a2.63 2.63 0 0 1-.587 1.09c-.27.259-.55.372-.874.372-.683 0-1.383-.545-2.122-1.606-.71-1.02-1.372-2.327-2.036-3.847a51.86 51.86 0 0 1-1.294-3.067 15.896 15.896 0 0 1 1.83-2.43c.955-.988 1.93-1.631 2.898-1.631h.7z" fill="#0081FB"/>
</svg>